<?xml version="1.0" encoding="utf-8"?>
<!-- Generator: Adobe Illustrator 23.0.3, SVG Export Plug-In . SVG Version: 6.00 Build 0)  -->
<svg version="1.1" id="Icons" xmlns="http://www.w3.org/2000/svg" xmlns:xlink="http://www.w3.org/1999/xlink" x="0px" y="0px"
	 viewBox="0 0 32 32" style="enable-background:new 0 0 32 32;" xml:space="preserve">
 <defs>
    <style type="text/css">
	.st0{fill:none;stroke:#000000;stroke-width:2;stroke-linecap:round;stroke-linejoin:round;stroke-miterlimit:10;}
	.st1{fill:none;stroke:#000000;stroke-width:2;stroke-linecap:round;stroke-linejoin:round;}
	.st2{fill:none;stroke:#000000;stroke-width:2;stroke-linecap:round;stroke-linejoin:round;stroke-dasharray:5.2066,0;}
</style>
  </defs>
  <g>
    <path class="st0" d="M 11 24 L 11 14 L 5 14 L 5 26 L 11 26 L 11 23.6 L 11 23.6 C 12.5 25.2 15.1 26 17.2 26 L 23.7 26 C 24.8 26 25.8 25.2 26 24 L 27.5 15.4 C 27.8 13.9 26.6 13 25.2 13 L 20 13 L 20 6.4 C 20 5.1 18.7 4 17.4 4 L 17.4 4 C 16.1 4 15 5.1 15 6.4 L 15 6.4 C 15 8 14.5 9.5 13.6 10.8 L 11 13.8"></path>
    <rect x="5.745" y="14.483" width="4.389" height="10.772" style="fill: rgb(0, 140, 255);" rx="0.239" ry="0.239"></rect>
  </g>
</svg>
